<svg width="0" height="0" class="hidden">
  <symbol version="1.0" xmlns="http://www.w3.org/2000/svg" preserveAspectRatio="xMidYMid meet" viewBox="0 0 128.000000 128.000000" id="levelup">
    <metadata>Created by potrace 1.16, written by Peter Selinger 2001-2019</metadata>
    <g transform="translate(0.000000,128.000000) scale(0.100000,-0.100000)" fill="#333" stroke="none">
      <path d="M955 1173 c-96 -121 -103 -146 -43 -151 35 -3 37 -5 40 -40 l3 -37
105 0 105 0 3 37 c3 35 5 37 40 40 58 5 50 34 -43 154 -58 75 -86 103 -103
103 -17 1 -43 -25 -107 -106z m165 -30 c52 -68 52 -68 26 -71 -23 -3 -26 -8
-26 -43 l0 -39 -60 0 -60 0 0 39 c0 35 -3 40 -26 43 -25 3 -25 4 27 71 28 37
55 67 59 67 4 0 31 -30 60 -67z"></path>
      <path d="M408 1187 c-143 -65 -179 -86 -187 -107 -40 -102 -191 -688 -191
-740 0 -56 4 -62 58 -89 24 -12 78 -47 120 -77 97 -70 200 -119 276 -133 82
-15 225 -13 320 4 77 14 81 13 155 -12 62 -21 96 -26 181 -27 102 -1 105 0
108 22 3 21 0 22 -70 22 -79 0 -167 18 -238 48 -41 17 -51 17 -105 6 -33 -7
-103 -16 -156 -20 -175 -12 -278 20 -446 139 -48 35 -103 69 -120 76 -23 9
-33 20 -33 35 0 36 105 443 180 696 9 31 19 39 93 72 45 20 116 52 157 71 l75
34 53 -68 53 -69 -57 -65 -57 -64 -29 24 c-35 29 -37 30 -74 10 -16 -8 -42
-15 -57 -15 -33 0 -45 -24 -24 -48 11 -13 17 -62 25 -187 10 -161 9 -172 -10
-213 -21 -44 -19 -72 5 -72 19 0 42 29 54 65 25 78 179 107 279 52 48 -27 104
-93 104 -124 0 -19 40 -16 47 4 4 10 -5 38 -20 67 l-27 50 27 28 c77 81 219
91 316 23 30 -21 57 -19 57 4 0 45 -115 96 -215 95 -72 -1 -135 -26 -193 -78
l-41 -37 -43 23 c-56 30 -195 33 -245 5 l-32 -17 -5 32 c-3 18 -8 88 -11 155
-7 122 -7 123 17 132 17 6 29 4 47 -10 27 -22 60 -24 83 -6 9 6 41 41 72 76
38 43 56 72 56 90 0 29 -124 202 -144 200 -6 0 -91 -37 -188 -82z"></path>
      <path d="M954 916 c-3 -7 -4 -31 -2 -52 l3 -39 105 0 105 0 0 50 0 50 -103 3
c-81 2 -103 0 -108 -12z"></path>
      <path d="M293 343 c-44 -17 46 -120 147 -167 52 -24 81 -31 152 -34 118 -6
160 2 156 31 -3 20 -9 21 -113 21 -98 1 -116 4 -168 28 -32 15 -79 49 -107 78
-27 27 -50 50 -52 49 -2 0 -9 -3 -15 -6z"></path>
    </g>
  </symbol>
</svg>
